<?xml version="1.0" encoding="UTF-8"?> <svg xmlns="http://www.w3.org/2000/svg" xmlns:xlink="http://www.w3.org/1999/xlink" version="1.1" id="corp-chek" x="0px" y="0px" viewBox="0 0 84 84" style="enable-background:new 0 0 84 84;" xml:space="preserve"> <path id="Forma_1" style="fill:#0F91E3;" d="M60.9,11.8H51v-1.7C51,9.5,50.5,9,49.9,9H32.2c-0.6,0-1.1,0.5-1.1,1.1v1.7h-9.9 c-0.6,0-1.1,0.5-1.1,1.1v53c0,0.6,0.5,1.1,1.1,1.1l0,0H61c0.6,0,1.1-0.5,1.1-1.1l0,0v-53C62,12.3,61.5,11.8,60.9,11.8z M33.3,11.2 h15.5v3.4H33.3V11.2L33.3,11.2z M59.8,64.8H22.2v-2.3h5.5c0.6,0,1.1-0.5,1.1-1.1s-0.5-1.1-1.1-1.1h-5.5V14H31v1.7 c0,0.6,0.5,1.1,1.1,1.1l0,0h17.7c0.6,0,1.1-0.5,1.1-1.1l0,0V14h8.8L59.8,64.8L59.8,64.8L59.8,64.8z M32.7,23.6 c-0.5-0.3-1.2-0.1-1.5,0.5l0,0l-1.5,3.1l-1.2-1.1c-0.4-0.4-1.1-0.4-1.5,0l0,0c-0.4,0.4-0.4,1.1,0,1.6l2.2,2.2 c0.2,0.2,0.5,0.3,0.8,0.3c0.1,0,0.1,0,0.2,0c0.4-0.1,0.7-0.3,0.8-0.6l2.2-4.5C33.4,24.6,33.2,23.9,32.7,23.6L32.7,23.6L32.7,23.6z M54.3,25.7H36.6c-0.6,0-1.1,0.5-1.1,1.1s0.5,1.1,1.1,1.1h17.7c0.6,0,1.1-0.5,1.1-1.1S54.9,25.7,54.3,25.7L54.3,25.7z M32.7,34.8 c-0.5-0.3-1.2,0-1.5,0.5l-1.5,3.1l-1.2-1.2c-0.4-0.4-1.1-0.4-1.6,0c-0.4,0.4-0.4,1.1,0,1.6l2.2,2.2c0.2,0.2,0.5,0.3,0.8,0.3 c0.1,0,0.1,0,0.2,0c0.4-0.1,0.7-0.3,0.8-0.6l2.2-4.5C33.4,35.7,33.2,35,32.7,34.8L32.7,34.8z M54.3,36.9H36.6 c-0.6,0-1.1,0.5-1.1,1.1s0.5,1.1,1.1,1.1h17.7c0.6,0,1.1-0.5,1.1-1.1S54.9,36.9,54.3,36.9L54.3,36.9z M32.7,45.9 c-0.5-0.3-1.2,0-1.5,0.5l-1.5,3.1l-1.2-1.1c-0.4-0.4-1.1-0.4-1.6,0c-0.4,0.4-0.4,1.1,0,1.6l2.2,2.2c0.2,0.2,0.5,0.3,0.8,0.3 c0.1,0,0.1,0,0.2,0c0.4-0.1,0.7-0.3,0.8-0.6l2.2-4.5C33.4,46.9,33.2,46.2,32.7,45.9L32.7,45.9z M54.3,48H36.6 c-0.6,0-1.1,0.5-1.1,1.1s0.5,1.1,1.1,1.1h17.7c0.6,0,1.1-0.5,1.1-1.1S54.9,48,54.3,48L54.3,48z M32.1,61.2c0-0.1,0-0.1-0.1-0.2 c0-0.1-0.1-0.1-0.1-0.2s-0.1-0.1-0.1-0.2c-0.3-0.3-0.6-0.4-1-0.3c-0.1,0-0.1,0-0.2,0.1c-0.1,0-0.1,0.1-0.2,0.1 c-0.1,0-0.1,0.1-0.2,0.1c0,0.1-0.1,0.1-0.1,0.2S30,60.9,30,61s-0.1,0.1-0.1,0.2s0,0.1,0,0.2c0,0.4,0.2,0.7,0.5,0.9 c0.1,0,0.1,0.1,0.2,0.1c0.1,0,0.1,0.1,0.2,0.1c0.1,0,0.3,0,0.4,0c0.1,0,0.1,0,0.2-0.1c0.1,0,0.1-0.1,0.2-0.1 c0.3-0.2,0.5-0.6,0.5-0.9C32.2,61.3,32.2,61.3,32.1,61.2L32.1,61.2z"></path> </svg> 