<?xml version="1.0" encoding="UTF-8"?> <svg xmlns="http://www.w3.org/2000/svg" xmlns:xlink="http://www.w3.org/1999/xlink" version="1.1" id="corp-safe" x="0px" y="0px" viewBox="0 0 84 84" style="enable-background:new 0 0 84 84;" xml:space="preserve"> <path id="Forma_1" style="fill:#0F91E3;" d="M62.9,17H21.1c-2.3,0-4.1,1.8-4.1,4.1v41c0,2,1.4,3.6,3.3,4V69c0,0.6,0.5,1,1.1,1h7.3 c0.6,0,1-0.5,1.1-1v-2.9h24.6V69c0,0.6,0.5,1,1.1,1h7.3c0.6,0,1-0.5,1.1-1v-2.9c1.9-0.4,3.3-2,3.3-4v-41C67,18.8,65.1,17,62.9,17z M27.6,67.9h-5.2v-1.8h5.2V67.9z M61.6,67.9h-5.2v-1.8h5.2V67.9L61.6,67.9z M64.9,54.2h-2.4V28.9h2.4V54.2L64.9,54.2z M64.9,26.9 h-2.4v-4.4c0-0.6-0.5-1-1.1-1H22.6c-0.6,0-1,0.5-1.1,1v38.1c0,0.6,0.5,1,1.1,1h38.8c0.6,0,1-0.5,1.1-1v-4.4h2.4V62c0,1.1-0.9,2-2,2 H21.1c-1.1,0-2-0.9-2-2V21c0-1.1,0.9-2,2-2l0,0h41.8c1.1,0,2,0.9,2,2l0,0L64.9,26.9L64.9,26.9z M60.4,23.5v36H23.6v-36H60.4 L60.4,23.5z M52.2,31.5c-5.7-5.6-14.7-5.6-20.4,0c-5.6,5.5-5.6,14.4-0.2,20c0.1,0.1,0.1,0.1,0.2,0.2c5.7,5.6,14.7,5.6,20.4,0 c5.6-5.5,5.6-14.4,0.2-20C52.3,31.6,52.2,31.5,52.2,31.5L52.2,31.5z M50.7,50.1c-4.8,4.7-12.6,4.7-17.4,0c-4.7-4.7-4.8-12.3-0.1-17 l0.1-0.1c4.8-4.7,12.6-4.7,17.4,0C55.4,37.7,55.5,45.3,50.7,50.1C50.8,50.1,50.7,50.1,50.7,50.1L50.7,50.1z M49.4,34.3 c-4.1-4-10.7-4-14.7,0s-4.1,10.4-0.1,14.4l0.1,0.1c4.1,4,10.7,4,14.7,0l0,0C53.4,44.8,53.5,38.4,49.4,34.3 C49.5,34.3,49.4,34.3,49.4,34.3L49.4,34.3z M42,33.3c1.8,0,3.6,0.6,5.1,1.7l-3.4,3.5c-1-0.5-2.3-0.5-3.3,0L37,35.1 C38.4,33.9,40.2,33.3,42,33.3L42,33.3z M43,42.6c-0.6,0.6-1.5,0.6-2,0c-0.6-0.6-0.6-1.5,0-2c0.6-0.6,1.5-0.6,2,0 C43.6,41.1,43.6,42,43,42.6L43,42.6z M33.7,41.6c0-1.8,0.6-3.6,1.7-5l3.4,3.4c-0.5,1-0.5,2.2,0,3.3l-3.4,3.4 C34.3,45.2,33.7,43.4,33.7,41.6L33.7,41.6z M42,49.8c-1.8,0-3.6-0.6-5.1-1.7l3.4-3.4c0.5,0.3,1.1,0.4,1.6,0.4c0.6,0,1.1-0.1,1.6-0.4 l3.4,3.4C45.6,49.2,43.8,49.8,42,49.8L42,49.8z M48.6,46.6l-3.4-3.4c0.5-1,0.5-2.2,0-3.3l3.4-3.4C50.9,39.5,50.9,43.6,48.6,46.6 L48.6,46.6z M57.5,51.2c-0.6,0-1,0.5-1.1,1l0,0v4.6c0,0.6,0.5,1,1.1,1c0.5,0,1-0.5,1-1v-4.6C58.6,51.7,58.1,51.2,57.5,51.2 L57.5,51.2L57.5,51.2z M57.5,47.9c-0.6,0-1,0.5-1,1s0.5,1,1,1c0.6,0,1-0.5,1-1C58.5,48.3,58.1,47.9,57.5,47.9L57.5,47.9z"></path> </svg> 